<svg width="300" height="300" viewBox="0 0 300 300" fill="none"
    xmlns="http://www.w3.org/2000/svg">
    <path d="M124.508 290C122.205 290 119.996 289.088 118.368 287.466C116.74 285.844 115.825 283.643 115.825 281.348V279.733C115.825 278.597 116.049 277.472 116.486 276.422C116.922 275.372 117.562 274.419 118.368 273.615C119.174 272.812 120.131 272.174 121.185 271.74C122.238 271.305 123.367 271.081 124.508 271.081H175.492C176.632 271.081 177.762 271.305 178.815 271.739C179.868 272.174 180.826 272.812 181.632 273.615C182.438 274.418 183.078 275.372 183.514 276.422C183.951 277.471 184.175 278.596 184.175 279.733V281.348C184.175 282.484 183.951 283.609 183.514 284.659C183.078 285.709 182.438 286.663 181.632 287.466C180.826 288.269 179.869 288.907 178.815 289.341C177.762 289.776 176.633 290 175.492 290H124.508ZM123.419 252.162C118.384 252.162 113.555 250.169 109.994 246.621C106.433 243.073 104.433 238.261 104.433 233.243V207.705C86.7874 199.177 71.9082 185.87 61.4991 169.307C51.09 152.745 45.5717 133.596 45.5759 114.054C45.5759 56.5878 92.3294 10 150 10C207.671 10 254.424 56.5878 254.424 114.054C254.428 133.596 248.91 152.745 238.501 169.307C228.092 185.87 213.213 199.177 195.567 207.705V233.243C195.567 238.261 193.566 243.073 190.006 246.621C186.445 250.169 181.616 252.162 176.581 252.162H123.419Z" fill="#0072C6"/>
</svg>
